<svg id="Layer_1" data-name="Layer 1" xmlns="http://www.w3.org/2000/svg" viewBox="0 0 442.86 590.82"><defs><style>.cls-1{fill:#7254d0;}.cls-2{fill:#81cad2;}</style></defs><title>Banner</title><path class="cls-1" d="M519.4,345.77V604a32.25,32.25,0,0,1-32.25,32.25,32.22,32.22,0,0,1-27.94-16.12L388.83,498.24l-62.91-109a32.18,32.18,0,0,0-55.84,0l-62.91,109L136.71,620.15A32.24,32.24,0,0,1,76.55,604V345.77Z" transform="translate(-76.54 -45.45)"/><path class="cls-1" d="M519.4,74.73V181.28H76.54V74.73c0-16.17,14.45-29.28,32.26-29.28H487.14C505,45.45,519.4,58.56,519.4,74.73Z" transform="translate(-76.54 -45.45)"/><rect class="cls-2" x="0.01" y="162.54" width="442.85" height="111.09"/></svg>