<svg id="Layer_1" data-name="Layer 1" xmlns="http://www.w3.org/2000/svg" viewBox="0 0 737.49 459.5"><defs><style>.cls-1{fill:#7254d0;}.cls-2{fill:none;}.cls-3{fill:#8fd1d8;}.cls-4{fill:#f39178;}</style></defs><title>Blog</title><circle class="cls-1" cx="162.73" cy="84.48" r="84.48"/><line class="cls-2" x1="184.97" y1="433.46" x2="184.97" y2="430.31"/><path class="cls-1" d="M364.51,517.74,327.18,626.39l-6.6,19.21H85.88c-22.39,0-40.54-15.89-40.54-35.43V552.1c0-.79,0-1.54.08-2.33,1.35-18.46,19-33.11,40.46-33.11H354.51A45.34,45.34,0,0,1,364.51,517.74Z" transform="translate(-45.34 -264.06)"/><path class="cls-1" d="M370.83,499.27l-6.32,18.47L327.18,626.39c-25.93,9.21-58.61,14.39-96.86,14.39-7.54,0-15-.21-22.25-.68-90-5.46-160.23-43.61-162.65-90.33,0-.82-.08-1.67-.08-2.5,0-47.82,71.08-87.29,162.73-92.82,7.29-.47,14.71-.68,22.25-.68C295,453.77,343.76,472.45,370.83,499.27Z" transform="translate(-45.34 -264.06)"/><polyline class="cls-2" points="162.72 190.39 162.72 252.6 162.72 376.04 162.72 381.54 162.72 420.51"/><line class="cls-2" x1="162.73" y1="189.71" x2="162.73" y2="177.88"/><path class="cls-3" d="M208.07,454.45V645.6H85.88c-22.39,0-40.54-15.89-40.54-35.43V552.1c0-.79,0-1.54.08-2.33s-.08-1.67-.08-2.5C45.34,499.45,116.42,460,208.07,454.45Z" transform="translate(-45.34 -264.06)"/><path class="cls-4" d="M370.83,499.27l-6.32,18.47L327.18,626.39l-6.6,19.21H208.07V454.45c7.29-.47,14.71-.68,22.25-.68C295,453.77,343.76,472.45,370.83,499.27Z" transform="translate(-45.34 -264.06)"/><path class="cls-1" d="M351.59,723.56H694.84a19.37,19.37,0,0,0,18.44-13.47l68.62-214.3a19.37,19.37,0,0,0-18.45-25.27H420.21A19.37,19.37,0,0,0,401.76,484l-68.61,214.3A19.37,19.37,0,0,0,351.59,723.56Z" transform="translate(-45.34 -264.06)"/><path class="cls-1" d="M326.28,721.06l-169.6-20.92a5.23,5.23,0,0,1-4.47-3.9l-4-16.63a5.08,5.08,0,0,1,5.74-6.11L323.6,694.43a5.22,5.22,0,0,1,4.47,3.9l4,16.58A5.12,5.12,0,0,1,326.28,721.06Z" transform="translate(-45.34 -264.06)"/><polygon class="cls-1" points="280.94 457 306.25 459.5 306.25 453.36 283.05 451.66 280.94 457"/><polyline class="cls-3" points="293.59 391.98 283.33 423.53 118.22 405.91"/></svg>