<svg id="Layer_1" data-name="Layer 1" xmlns="http://www.w3.org/2000/svg" viewBox="0 0 616.34 553.17"><defs><style>.cls-1,.cls-3{fill:none;}.cls-1{stroke:#071500;stroke-miterlimit:10;}.cls-2{fill:#7254d0;}.cls-4{fill:#f39178;}</style></defs><title>fbgroup</title><line class="cls-1" x1="280.34" y1="416.05" x2="274.82" y2="416"/><circle class="cls-2" cx="191.37" cy="98.19" r="98.19"/><line class="cls-3" x1="214.24" y1="504" x2="214.27" y2="500.34"/><path class="cls-2" d="M398.17,514.63l-44.31,126L346,662.87l-272.79-2c-26-.19-47-18.82-46.81-41.53l.49-67.5c0-.91.06-1.78.11-2.69,1.73-21.45,22.32-38.32,47.31-38.14l312.23,2.29A53,53,0,0,1,398.17,514.63Z" transform="translate(-26.42 -218.44)"/><path class="cls-2" d="M405.68,493.22l-7.51,21.41-44.31,126c-30.22,10.49-68.25,16.23-112.71,15.9-8.76-.06-17.39-.37-25.85-1C110.69,648.39,29.44,603.46,27,549.14c0-1-.07-2-.07-2.91.41-55.59,83.36-100.85,189.93-106.5q12.72-.72,25.87-.6C317.89,439.68,374.44,461.81,405.68,493.22Z" transform="translate(-26.42 -218.44)"/><polyline class="cls-3" points="190.47 221.29 189.94 293.6 188.88 437.07 188.83 443.47 188.5 488.76"/><line class="cls-3" x1="190.47" y1="220.5" x2="190.57" y2="206.76"/><path class="cls-4" d="M216.88,439.73l-1.63,222.18-142-1c-26-.19-47-18.82-46.81-41.53l.49-67.5c0-.91.06-1.78.11-2.69s-.07-2-.07-2.91C27.36,490.64,110.31,445.38,216.88,439.73Z" transform="translate(-26.42 -218.44)"/><line class="cls-1" x1="484.37" y1="465.22" x2="478.85" y2="465.17"/><circle class="cls-2" cx="421.25" cy="147.36" r="98.19"/><line class="cls-2" x1="418.27" y1="553.17" x2="418.3" y2="549.51"/><path class="cls-2" d="M602.19,563.78l-44.31,126L550,712l-269-2c-28.3-1.33-50.71-19.51-50.59-41.47l.5-67.55c0-.91,0-1.78.1-2.69v0c1.74-21.46,22.33-38.33,47.32-38.14l312.22,2.29A53.58,53.58,0,0,1,602.19,563.78Z" transform="translate(-26.42 -218.44)"/><path class="cls-2" d="M609.69,542.38l-7.5,21.4-44.31,126c-21.86,7.56-47.76,12.68-77.25,14.79q-17,1.25-35.46,1.11-13.14-.09-25.86-1C314.7,697.55,233.45,652.62,231,598.3c0-1-.07-2-.06-2.91.41-55.59,83.36-100.85,189.93-106.5,8.47-.48,17.11-.67,25.87-.6q18.42.13,35.35,2c39.32,6,74.07,17,101.11,31.51A140.05,140.05,0,0,1,609.69,542.38Z" transform="translate(-26.42 -218.44)"/><polyline class="cls-3" points="394.5 270.46 393.96 342.77 392.91 486.24 392.86 492.64 392.53 537.93"/><line class="cls-3" x1="394.5" y1="269.67" x2="394.6" y2="255.93"/><path class="cls-4" d="M435.15,489l-1.63,222.22-152.73-1.12c-.86,0-1.72,0-2.62-.06-26.72-1.32-47.86-19.49-47.74-41.45l.5-67.54c0-.92,0-1.79.1-2.7v0c0-1-.07-1.91-.06-2.87v0c.28-33.42,32.55-63.07,83.17-82.63,23.57-9.12,51.13-16,81.25-20.12,4.91-.67,9.85-1.25,14.87-1.75Q422.49,489.6,435.15,489Z" transform="translate(-26.42 -218.44)"/><path class="cls-2" d="M642.25,670.94c-.17,23-22.48,41.6-49.88,41.4L550,712l-69.45-.47.05-7,1-142.89.48-71.4c39.32,6,74.07,17,101.11,31.51C620.37,541.62,643,568,642.75,596.88c0,1,0,2-.1,3s.07,1.78.06,2.74Z" transform="translate(-26.42 -218.44)"/></svg>