<?xml version="1.0" encoding="UTF-8"?>
<svg width="26px" height="19px" viewBox="0 0 26 19" version="1.1" xmlns="http://www.w3.org/2000/svg" xmlns:xlink="http://www.w3.org/1999/xlink">
    <!-- Generator: Sketch 62 (91390) - https://sketch.com -->
    <title>Footer_Icon_Icon</title>
    <desc>Created with Sketch.</desc>
    <g id="Footer_Icon_Icon" stroke="none" stroke-width="1" fill="none" fill-rule="evenodd">
        <g id="youtube-copy" fill="#F3F1F1" fill-rule="nonzero">
            <path d="M25.4642007,2.98466106 C25.164592,1.88329595 24.2863957,1.01510198 23.1727019,0.718538368 C21.138124,0.168091168 12.9996535,0.168091168 12.9996535,0.168091168 C12.9996535,0.168091168 4.86150033,0.168091168 2.82692239,0.697669045 C1.73465188,0.99391885 0.835032326,1.88345285 0.535423624,2.98466106 C0,4.99627254 0,9.16809117 0,9.16809117 C0,9.16809117 0,13.360936 0.535423624,15.3515213 C0.835349688,16.4527295 1.71322858,17.3209235 2.82708107,17.6174871 C4.88292359,18.1680912 12.9999708,18.1680912 12.9999708,18.1680912 C12.9999708,18.1680912 21.138124,18.1680912 23.1727019,17.6385133 C24.2865544,17.3421065 25.164592,16.4739126 25.464518,15.3727044 C25.9998923,13.360936 25.9998923,9.18927429 25.9998923,9.18927429 C25.9998923,9.18927429 26.0212063,4.99627254 25.4642007,2.98466106 L25.4642007,2.98466106 Z M10.408546,13.022163 L10.408546,5.31401932 L17.1760845,9.16809117 L10.408546,13.022163 Z" id="Shape"></path>
        </g>
    </g>
</svg>