<?xml version="1.0" encoding="UTF-8"?>
<svg width="26px" height="26px" viewBox="0 0 26 26" version="1.1" xmlns="http://www.w3.org/2000/svg" xmlns:xlink="http://www.w3.org/1999/xlink">
    <!-- Generator: Sketch 62 (91390) - https://sketch.com -->
    <title>Footer_linkedin_Icon</title>
    <desc>Created with Sketch.</desc>
    <g id="Footer_linkedin_Icon" stroke="none" stroke-width="1" fill="none" fill-rule="evenodd">
        <g id="linkedin-copy" fill="#F3F1F1" fill-rule="nonzero">
            <path d="M6.90215707,24.530911 C6.90215707,24.9961675 6.52502618,25.3732984 6.05976963,25.3732984 L2.4739267,25.3732984 C2.00867016,25.3732984 1.63153927,24.9961675 1.63153927,24.530911 L1.63153927,9.49920419 C1.63153927,9.03394764 2.00867016,8.65681675 2.4739267,8.65681675 L6.05976963,8.65681675 C6.52502618,8.65681675 6.90215707,9.03394764 6.90215707,9.49920419 L6.90215707,24.530911 Z M4.26684817,7.2398534 C2.38546597,7.2398534 0.860272251,5.71465969 0.860272251,3.83327749 C0.860272251,1.95189529 2.38546597,0.426701571 4.26684817,0.426701571 C6.14823037,0.426701571 7.67342408,1.95189529 7.67342408,3.83327749 C7.67342408,5.71465969 6.14831414,7.2398534 4.26684817,7.2398534 Z M25.6416777,24.5987644 C25.6416777,25.0264921 25.2948691,25.3732984 24.8671414,25.3732984 L21.019267,25.3732984 C20.5915393,25.3732984 20.244733,25.0264921 20.244733,24.5987644 L20.244733,17.5480419 C20.244733,16.4962304 20.5532565,12.9389529 17.496,12.9389529 C15.1245654,12.9389529 14.6435602,15.373801 14.5469738,16.4664921 L14.5469738,24.5987644 C14.5469738,25.0264921 14.2002513,25.3732984 13.7724398,25.3732984 L10.0508901,25.3732984 C9.6231623,25.3732984 9.27635602,25.0264921 9.27635602,24.5987644 L9.27635602,9.43135079 C9.27635602,9.00362304 9.6231623,8.65681675 10.0508901,8.65681675 L13.7724398,8.65681675 C14.2001675,8.65681675 14.5469738,9.00362304 14.5469738,9.43135079 L14.5469738,10.7427644 C15.4263037,9.42314136 16.7331099,8.40458639 19.5155183,8.40458639 C25.6769424,8.40458639 25.6416777,14.1609005 25.6416777,17.3237068 L25.6416777,24.5987644 L25.6416777,24.5987644 Z" id="Shape"></path>
        </g>
    </g>
</svg>