<?xml version="1.0" encoding="UTF-8"?>
<svg width="24px" height="22px" viewBox="0 0 24 22" version="1.1" xmlns="http://www.w3.org/2000/svg" xmlns:xlink="http://www.w3.org/1999/xlink">
    <!-- Generator: Sketch 62 (91390) - https://sketch.com -->
    <title>Footer_Twitter_Icon</title>
    <desc>Created with Sketch.</desc>
    <g id="Footer_Twitter_Icon" stroke="none" stroke-width="1" fill="none" fill-rule="evenodd">
        <g id="twitter-copy" fill="#F3F1F1" fill-rule="nonzero">
            <path d="M24,3.41107692 C23.1075,3.83269231 22.1565,4.11215385 21.165,4.24784615 C22.185,3.592 22.9635,2.56138462 23.3295,1.31915385 C22.3785,1.92976923 21.3285,2.36107692 20.2095,2.60176923 C19.3065,1.56630769 18.0195,0.925 16.6155,0.925 C13.8915,0.925 11.6985,3.30607692 11.6985,6.22507692 C11.6985,6.64507692 11.7315,7.04892308 11.8125,7.43338462 C7.722,7.21853846 4.1025,5.10723077 1.671,1.891 C1.2465,2.68415385 0.9975,3.592 0.9975,4.56930769 C0.9975,6.40438462 1.875,8.03107692 3.183,8.97284615 C2.3925,8.95669231 1.617,8.70953846 0.96,8.32023077 C0.96,8.33638462 0.96,8.35738462 0.96,8.37838462 C0.96,10.9533077 2.6655,13.0920769 4.902,13.5847692 C4.5015,13.7026923 4.065,13.7592308 3.612,13.7592308 C3.297,13.7592308 2.979,13.7398462 2.6805,13.6687692 C3.318,15.7671538 5.127,17.3098462 7.278,17.3599231 C5.604,18.7701538 3.4785,19.6198462 1.1775,19.6198462 C0.774,19.6198462 0.387,19.6004615 0,19.5471538 C2.1795,21.0607692 4.7625,21.925 7.548,21.925 C16.602,21.925 21.552,13.8480769 21.552,6.847 C21.552,6.61276923 21.5445,6.38661538 21.534,6.16207692 C22.5105,5.41576923 23.331,4.48369231 24,3.41107692 Z" id="Path"></path>
        </g>
    </g>
</svg>